<?xml version="1.0" encoding="UTF-8" standalone="no"?>
<!-- Created with Inkscape (http://www.inkscape.org/) -->

<svg
   version="1.1"
   id="svg1"
   width="950"
   height="1000"
   viewBox="0 0 950 1000"
   xml:space="preserve"
   xmlns="http://www.w3.org/2000/svg"
   xmlns:svg="http://www.w3.org/2000/svg"><defs
     id="defs1" /><g
     id="g1"><g
       id="g11"
       transform="translate(-931.69883,-232.92471)"><path
         style="fill:#000000"
         d="m 1112.4907,1201.1741 c -10.9663,-1.8909 -21.7949,-4.6588 -31.9591,-9.392 -9.0558,-4.2171 -19.0597,-6.2724 -27.2995,-12.2198 -6.8745,-4.9619 -14.1317,-9.3851 -20.8476,-14.552 -12.7255,-9.7907 -22.5822,-22.666 -32.0857,-35.4244 -11.35258,-15.2408 -18.29876,-33.1553 -23.68082,-51.2229 -2.34753,-7.8807 -6.26597,-15.2157 -7.19078,-23.5367 -2.50272,-22.5186 -2.30321,-45.226 -1.56098,-67.86515 0.70031,-21.36025 8.92316,-41.61064 11.18521,-62.70794 1.1496,-10.72193 4.52326,-20.95077 7.72608,-31.17586 3.90139,-12.45532 7.8108,-24.91072 11.67017,-37.38052 2.65522,-8.57909 7.52582,-16.26496 10.40942,-24.72548 2.9335,-8.60714 6.1227,-17.07716 10.0951,-25.31269 6.8774,-14.25828 14.8932,-27.9184 22.0789,-42.04051 7.2077,-14.16535 15.8392,-27.58494 25.0941,-40.48028 15.2187,-21.20474 32.5417,-40.81379 50.2924,-59.90891 11.296,-12.15154 23.4073,-23.5293 36.2807,-33.94851 7.5758,-6.1315 14.6902,-12.86315 22.6886,-18.43237 5.9402,-4.13618 11.8718,-8.24382 17.8072,-12.39656 10.8857,-7.61624 22.2125,-14.56551 33.6984,-21.20318 6.0714,-3.50866 12.9915,-5.13186 18.8379,-9.12433 7.118,-4.86078 15.4957,-8.08309 21.0398,-14.98051 15.1769,-18.88184 30.9707,-37.24593 45.8896,-56.36925 9.9173,-12.71219 20.6322,-24.7468 30.4775,-37.53455 7.4319,-9.65301 16.2646,-18.03691 24.3374,-27.15009 13.2031,-14.90469 25.5337,-31.0766 41.6425,-42.77564 9.6965,-7.04213 18.1821,-15.52077 27.9155,-22.53101 7.0042,-5.04457 14.0239,-9.97339 21.0187,-15.04793 8.8193,-6.39811 18.1936,-11.82442 27.9807,-16.78521 8.6359,-4.37736 17.0036,-9.23488 26.0373,-12.87328 19.5882,-7.88933 41.2887,-9.59195 60.5371,-18.11528 7.9865,-3.53647 9.9464,-12.78593 15.7546,-18.63932 8.1009,-8.16392 17.335,-15.17789 26.9608,-21.38371 5.8168,-3.75012 11.3896,-8.76096 18.2184,-9.92974 8.2234,-1.40748 10.3759,8.42888 11.8461,14.57919 2.5936,10.84966 -0.9552,24.05922 5.7912,32.92893 4.6814,6.15477 12.3778,5.70586 19.3579,7.15663 10.4015,2.16189 19.6917,8.26376 30.3279,9.70191 5.7521,0.77776 14.0374,3.69354 11.4732,11.29854 -2.1844,6.47825 -7.1526,11.31078 -10.4327,17.28338 -4.1747,7.60159 -10.8822,13.7344 -14.2223,21.7846 -2.7848,6.71178 4.6672,11.21962 9.3556,14.50916 13.2063,9.26619 26.3487,19.73404 34.6604,33.55019 5.0626,8.41547 9.6057,17.13605 14.8993,25.39653 9.6013,14.98228 23.165,26.82597 33.9234,40.91637 6.5503,8.57899 13.8703,16.493 21.1273,24.48665 14.1463,15.58216 30.0834,30.19129 40.236,48.72209 6.7048,12.23788 7.0822,26.45606 7.0747,40.07136 -0.01,12.43517 0.5688,25.24588 -3.0048,37.22426 -1.9933,6.68126 -7.3793,11.42793 -13.4171,14.93592 -13.3336,7.74685 -28.223,12.19604 -42.9215,16.46696 -11.4197,3.3182 -24.4234,2.79142 -34.5585,-4.38872 -11.2845,-7.99442 -20.1341,-18.84742 -32.0925,-26.13535 -10.4213,-6.35123 -23.0543,-4.7883 -34.5264,-7.77341 -11.2845,-2.93633 -22.7064,-5.05028 -34.4072,-6.1793 -21.04,-2.03019 -41.1591,-23.72634 -60.8403,-16.37894 -7.2878,2.72071 -7.7135,11.47679 -10.9066,17.75273 -5.0241,9.87458 -8.0382,20.90477 -14.334,29.99184 -5.7836,8.34775 -9.3183,17.87095 -12.9178,27.26308 -3.3012,8.61384 -8.1019,16.53992 -11.6034,25.05342 -2.8459,6.91926 -6.388,13.47192 -9.7192,20.17855 -4.9102,9.88552 -8.9825,20.13128 -14.4422,29.78522 -6.9438,12.27844 -16.4591,22.76288 -26.3649,32.72234 -18.8745,18.97655 -41.5633,33.66765 -60.9048,52.07284 -8.4931,8.08196 -18.5402,14.12275 -27.1847,22.09891 -5.9822,5.51972 -9.7898,13.23214 -16.1154,18.26079 -12.532,9.96265 -20.1032,24.43039 -28.656,37.82522 -3.5883,5.61984 -7.8352,10.64048 -10.9791,16.70786 -5.8614,11.31151 -13.1883,21.95443 -16.7181,34.37361 -2.0855,7.33748 -4.7522,14.4703 -7.2437,21.68062 -4.1439,11.99223 -7.3708,24.22433 -9.5952,36.78843 -1.1494,6.4923 -1.8198,13.0622 -4.4802,19.2442 -5.2131,12.114 -8.9967,24.7873 -11.7524,37.6597 -2.0206,9.4389 -9.5434,16.1433 -12.6546,25.2832 -3.1528,9.2617 -9.4155,16.8083 -15.1531,24.5214 -8.7979,11.827 -18.4871,23.2573 -30.1435,32.2515 -5.5077,4.2497 -10.9668,8.5656 -16.8005,12.3533 -16.2895,10.5764 -34.7597,17.8004 -53.6634,21.4406 -11.8735,2.2865 -24.0707,2.1227 -36.1177,2.0471 -7.4172,-0.046 -14.8326,-0.2264 -22.2488,-0.3478 z m 39.7446,-49.8228 c 11.9212,-0.9376 23.0407,-5.7101 33.5096,-11.4452 12.9073,-7.0709 25.4084,-15.8022 34.2907,-27.7004 5.7492,-7.7011 7.7276,-19.3745 1.1628,-27.269 -5.735,-6.8967 -14.3694,-10.2787 -22.0234,-14.5283 -14.5183,-8.0605 -29.7822,-14.4266 -44.9002,-21.3484 -12.3208,-5.641 -25.0022,-10.3564 -37.0705,-16.6622 -7.0777,-3.6982 -14.9149,-6.7034 -20.549,-12.3581 -6.3506,-6.3738 -7.8903,-17.6762 -2.8712,-25.04242 4.0581,-5.9557 11.912,-6.7571 18.4341,-6.68424 11.1745,0.12483 22.0354,3.23531 32.7781,5.98253 19.6025,5.01287 38.7677,11.54593 58.1677,17.25653 14.9621,4.4042 29.521,9.8423 45.0922,12.524 10.6494,1.8341 18.9837,-7.5176 22.1246,-17.3947 3.6665,-11.52993 11.8606,-24.03962 7.5441,-35.53464 -4.7741,-12.7141 -17.753,-19.19722 -29.3237,-24.71332 -15.7512,-7.50904 -32.9095,-12.06454 -48.1154,-20.59733 -5.2397,-2.94023 -10.2591,-6.06647 -15.9576,-8.30659 -6.0013,-2.35918 -12.2827,-4.55219 -17.3776,-8.45417 -5.7437,-4.39896 -12.4894,-11.25209 -10.5299,-18.78766 2.4444,-9.40013 13.2997,-12.61389 22.2568,-12.02309 17.6534,1.16441 34.7675,5.95038 51.703,11.16683 9.167,2.82359 18.2005,6.10497 27.5338,8.34254 7.4054,1.77536 14.5195,4.42358 21.4593,7.56342 8.8967,4.02521 20.0243,4.9466 28.3425,-1.17536 8.8967,-6.54777 15.5285,-17.32739 15.1057,-28.40535 -0.2539,-6.65249 -5.8899,-11.16029 -9.9957,-15.78058 -5.8951,-6.63376 -14.128,-10.24608 -21.3605,-15.15315 -11.4544,-7.77148 -22.4904,-16.08788 -33.767,-24.17558 -8.1788,-5.86599 -16.6477,-11.28681 -24.2273,-18.00425 -7.2276,-6.40549 -16.1234,-12.31539 -19.5513,-21.57874 -2.5588,-6.91487 1.2167,-13.92598 6.339,-18.62024 7.7842,-7.13366 19.5154,-6.53405 28.7873,-3.18175 8.6244,3.11823 16.5104,7.82191 24.5085,12.24073 8.4271,4.6559 16.5811,9.72898 25.1843,14.09137 7.6835,3.89609 14.298,9.7656 22.1373,13.26092 6.9816,3.11286 13.7094,6.6454 20.3539,10.49359 8.999,5.21178 18.6524,12.45848 29.2139,11.15559 8.638,-1.0656 13.8064,-9.14492 16.462,-16.99836 4.7535,-14.0577 -2.0312,-28.97973 -11.348,-39.76687 -12.475,-14.44372 -28.4023,-25.77609 -39.8047,-41.05792 -13.359,-17.90406 -18.5628,-40.00202 -25.3315,-60.91955 -4.2387,-13.09905 -8.2935,-27.2721 -18.3383,-37.08942 -10.8008,-10.5562 -28.3024,-12.57397 -41.6821,-5.28988 -6.4125,3.49105 -14.274,6.41002 -17.8099,12.95414 -4.2446,7.85564 0.3911,17.06418 5.9351,23.02492 6.5182,7.00804 12.803,14.23741 20.2201,20.35763 11.5998,9.57158 22.4798,20.06193 32.1722,31.52512 6.7184,7.94588 14.5279,16.52652 14.7194,27.63787 0.1907,11.0613 -12.0568,19.50075 -22.32,16.4165 -12.6629,-3.80538 -23.0928,-12.31742 -33.3384,-20.25957 -9.1392,-7.0845 -19.0767,-13.01159 -28.9843,-18.94736 -9.3804,-5.61989 -18.0639,-12.20204 -26.728,-18.94799 -11.2814,-8.78376 -29.4336,-10.98489 -40.2541,-0.68053 -6.9573,6.62541 -12.3641,14.58578 -18.144,22.21863 -5.4313,7.17267 -13.2018,13.2172 -15.8488,21.97684 -3.1669,10.48021 3.0917,21.48274 12.3646,26.85095 6.5459,3.78949 12.9408,7.77721 19.193,12.06977 9.4793,6.5081 20.3534,10.72475 29.1798,18.26338 5.2224,4.46055 11.4584,7.5063 16.9238,11.6585 8.6339,6.55935 17.9042,13.25849 23.3429,22.71088 4.3454,7.55211 3.8104,19.46096 -4.8201,23.72906 -10.4424,5.16416 -22.3621,0.95774 -32.376,-3.13564 -13.992,-5.71953 -27.9927,-11.29602 -41.8713,-17.40233 -7.5549,-3.32397 -14.8653,-7.10729 -22.7907,-9.64373 -6.5437,-2.09426 -12.2605,-6.36287 -18.8513,-8.21294 -7.8782,-2.21149 -16.4725,-2.42401 -24.2276,-0.30483 -10.3359,2.82436 -14.923,13.61135 -18.912,22.53915 -5.9345,13.28194 -15.1323,27.3773 -12.3838,41.79823 1.585,8.31598 9.5943,13.45359 16.9683,15.5059 6.6461,1.84977 12.7641,4.7996 19.2459,7.34786 6.9959,2.7504 13.5615,6.41931 20.8708,8.48881 10.1836,2.88334 20.4958,5.39881 29.8851,10.72489 11.5832,6.5706 27.4686,7.17905 35.7627,17.78564 4.9868,6.37708 7.1077,16.26601 1.4974,23.21267 -4.6381,5.74284 -12.3404,7.3602 -19.5769,6.79667 -20.2565,-1.57745 -40.8707,-2.52596 -60.1602,-8.97664 -8.5691,-2.86563 -17.3113,-5.46132 -26.2419,-6.64682 -10.7143,-1.42229 -23.2143,-3.80214 -32.3087,3.59807 -5.7842,4.70664 -13.2427,9.51825 -14.1116,17.5794 -1.2195,11.3129 -1.8169,22.78261 -0.9237,34.11571 0.6833,8.6708 0.6928,19.2511 7.6065,25.1357 11.4007,9.7036 27.3152,9.1089 40.7958,13.9478 23.1249,8.3007 48.8793,8.2152 71.1084,18.7782 9.5375,4.532 12.6586,18.0066 5.7358,26.6955 -6.67,8.3718 -18.1903,9.1414 -27.9753,10.3197 -17.7038,2.1317 -36.1265,-1.6153 -53.3151,3.2298 -6.189,1.7446 -6.4738,10.3666 -2.3029,14.0658 5.0145,4.4474 9.5017,9.6053 15.2736,13.2472 6.4882,4.0938 13.7116,6.7495 20.4037,10.5089 17.8593,10.033 39.1962,9.6129 59.0054,8.3113 z m 293.1213,-373.72687 c 5.384,-7.04257 9.9809,-15.03469 10.4282,-24.35427 0.6519,-13.5819 -7.3899,-25.3223 -14.5336,-36.09896 -6.4427,-9.71904 -12.4522,-19.80535 -19.8267,-28.83074 -5.3588,-6.55845 -9.1316,-14.1967 -14.1322,-21.0781 -5.0571,-6.95905 -9.1112,-14.49492 -12.4696,-22.50827 -8.7393,-20.8523 -15.6332,-42.39914 -21.0884,-64.40609 -2.3369,-9.42768 -3.8727,-19.05017 -6.3108,-28.46194 -2.0485,-7.90751 -9.4452,-3.8424 -13.7711,0.54067 -4.1108,4.16503 -10.1171,7.57276 -11.561,13.3635 -1.8919,7.58759 0.615,15.1918 2.2782,22.5418 4.2499,18.7808 9.5745,37.28451 16.0716,55.44769 4.6095,12.88645 11.1906,24.87542 18.1173,36.78011 10.2319,17.58536 23.996,32.4761 36.5034,48.50316 10.8526,13.90665 18.2447,30.43338 21.7936,47.88871 0.9178,4.5145 6.3884,3.70923 8.5011,0.67273 z m 56.3143,-69.83803 c 7.5524,-9.41601 10.5073,-22.79051 5.4732,-34.31339 -4.2025,-9.61941 -9.3777,-18.67132 -14.187,-28.05797 -6.6715,-13.02142 -15.5211,-24.72515 -21.8333,-38.01397 -10.7589,-22.6505 -16.6881,-47.13069 -24.5034,-70.87294 -4.5161,-13.71938 -7.1608,-27.92796 -10.0222,-42.07702 -1.3025,-6.44026 1.343,-18.31672 -5.2006,-19.00381 -7.6319,-0.80138 -11.2921,6.55183 -16.2317,11.03764 -5.2124,4.73359 -11.7113,9.60224 -12.286,17.40476 -0.6309,8.56586 3.3512,16.31119 4.7058,24.63343 1.0012,6.15111 4.8788,11.48515 6.0552,17.50132 2.7923,14.28009 8.4687,27.78493 14.5173,40.91691 4.3808,9.51111 8.968,18.90261 14.7927,27.70474 3.5803,5.41037 6.3265,11.33462 10.6861,16.2414 7.3723,8.29753 11.8975,18.48007 17.253,28.08399 7.6894,13.78896 15.9647,27.15416 23.789,40.95076 1.6263,2.86765 1.8145,10.95349 6.9919,7.86415 z m 44.4656,-87.42212 c 5.5541,-9.1427 1.7765,-20.12463 -2.313,-29.35926 -5.5898,-12.6227 -8.7709,-26.09919 -13.1475,-39.14185 -9.6021,-28.6149 -15.2005,-58.55996 -15.9994,-88.80208 -0.4715,-17.84865 0.6863,-35.79211 -0.9418,-53.56049 -0.86,-9.3857 -9.3387,-1.12262 -12.9528,1.79699 -7.7982,6.29957 -16.123,11.93416 -24.9149,16.66828 -6.8684,3.69837 -6.4103,11.43583 -5.0489,18.16281 1.5049,7.43562 1.2762,15.22006 3.3888,22.49554 4.5388,15.63124 9.5137,31.13567 14.2429,46.71304 3.3365,10.98988 8.6722,21.2324 12.5329,32.03907 4.8092,13.46135 11.6225,26.02822 18.1675,38.71839 5.001,9.69648 7.2795,20.92878 13.9769,29.57889 2.6432,3.41388 4.9682,14.3553 10.3049,9.56797 1.4055,-1.26086 2.3882,-3.01382 2.7044,-4.8773 z m 190.5491,-24.66696 c 7.9419,-7.48705 17.9904,-12.17398 26.7018,-18.78187 10.7498,-8.15407 12.5154,-22.37432 15.7087,-34.51218 1.9782,-7.5197 -0.9846,-15.38214 -6.2864,-21.05384 -7.3898,-7.90549 -15.3413,-15.22619 -21.9632,-23.89623 -7.423,-9.71886 -16.7421,-17.74348 -24.8012,-26.88753 -12.811,-14.53587 -17.8071,-34.7525 -31.5368,-48.31092 -12.2983,-12.14488 -27.0354,-21.55238 -42.0447,-29.97591 -9.4539,-5.30573 -19.35,-9.876 -28.4831,-15.74162 -6.3598,-4.08447 -4.6826,-11.7225 -4.3601,-18.11353 0.8728,-17.29636 10.706,-38.2043 -0.01,-52.01796 -5.6168,-7.24168 -11.906,3.7727 -15.3642,8.06795 -8.4158,10.45302 -14.7925,22.39334 -18.3199,35.59504 -2.1633,8.0964 -1.6588,18.08362 -7.6495,24.06939 -5.7617,5.75691 -15.1659,4.72236 -21.5137,9.21143 -6.5335,4.62041 -4.8355,13.43728 -5.2864,20.31723 -2.1678,33.08061 -2.4363,67.05401 6.7711,99.05347 4.1239,14.33208 8.8162,28.70664 16.2048,41.62421 4.713,8.23985 14.0959,11.73639 21.7446,17.06032 9.3265,6.49169 18.7427,12.93804 28.7121,18.37103 16.0693,8.75727 34.7281,8.30596 52.3553,10.75725 13.4971,1.87694 26.5244,5.98646 39.7866,9.04869 6.6273,1.53022 14.7343,1.64878 19.6322,-3.88442 z m -69.9503,-112.58037 c -8.0496,-1.24555 -14.4481,-6.66666 -20.118,-12.56826 -4.876,-5.0753 -14.0638,-11.00727 -11.3109,-17.87215 2.9869,-7.44796 12.2386,-5.6503 18.6081,-6.20189 13.7849,-1.19374 29.0395,0.7304 39.5853,10.71934 5.2699,4.99174 12.1517,12.57327 9.0042,19.44257 -3.4145,7.45187 -12.8245,5.84613 -19.4717,6.30448 -5.421,0.37379 -10.8722,0.62288 -16.297,0.17591 z"
         id="path2" /><path
         style="fill:#389826;fill-opacity:1;stroke-width:2.11157"
         d="m 1510.3763,403.20308 c -14.3782,8.9792 -30.1907,17.74164 -41.6623,30.28787 -2.1336,21.80097 6.1733,43.61647 11.9085,64.48339 15.0723,43.99928 32.6853,87.70481 56.9651,127.45524 8.5686,6.55546 13.1682,-8.72054 12.7725,-15.13157 -3.0181,-24.20184 -15.2865,-46.56967 -20.7734,-70.25514 -13.2271,-42.31166 -12.839,-86.59477 -14.117,-130.44321 -0.1749,-2.91543 -1.0024,-7.2985 -5.0934,-6.39658 z"
         id="path9" /><path
         style="fill:#9558b2;fill-opacity:1;stroke-width:2.11157"
         d="m 1430.1861,473.47885 c -12.0553,4.48888 -22.0335,15.50012 -27.7763,26.82769 -3.3109,20.19731 7.9087,39.50155 12.7853,58.65354 16.2534,49.8877 50.4207,90.66103 74.4078,136.66277 3.307,4.56256 8.4156,19.57854 15.2553,11.09401 7.0752,-11.66593 10.1225,-26.38974 1.8839,-38.38941 -16.4802,-34.54295 -39.1082,-66.31506 -48.8676,-103.8321 -9.169,-28.38958 -17.839,-57.37809 -20.999,-87.00369 -1.0912,-2.62425 -3.8213,-4.39127 -6.6894,-4.01281 z"
         id="path10" /><path
         style="fill:#cb3c33;fill-opacity:1;stroke-width:2.11157"
         d="m 1362.9416,544.77741 c -11.1264,4.07162 -21.4363,14.58505 -24.4233,26.14308 9.1384,43.71324 20.694,88.62218 48.3063,124.76835 18.8311,25.93089 41.9186,50.61388 48.8755,82.80085 7.1984,8.67962 15.803,-4.64772 17.8576,-11.34556 7.8828,-16.57169 1.3824,-34.79055 -9.0431,-48.54947 -23.3478,-35.15094 -50.2221,-69.41444 -60.548,-111.06808 -6.7373,-20.28403 -9.5061,-42.198 -17.6886,-61.77174 -0.932,-0.7485 -2.1542,-1.06434 -3.3364,-0.97743 z"
         id="path11" /></g></g></svg>
